<?xml version="1.0" standalone="no"?>
<!DOCTYPE svg PUBLIC "-//W3C//DTD SVG 20010904//EN"
 "http://www.w3.org/TR/2001/REC-SVG-20010904/DTD/svg10.dtd">
<svg version="1.0" xmlns="http://www.w3.org/2000/svg"
 width="48.000000pt" height="48.000000pt" viewBox="0 0 48.000000 48.000000"
 preserveAspectRatio="xMidYMid meet">

<g transform="translate(0.000000,48.000000) scale(0.100000,-0.100000)"
fill="#000000" stroke="none">
<path d="M169 433 c-17 -15 -38 -42 -45 -60 -19 -44 -18 -134 2 -183 9 -23 14
-43 11 -47 -13 -12 15 -43 38 -43 29 0 39 14 31 46 -5 17 -13 24 -30 24 -68 0
-61 207 8 255 52 37 128 -6 142 -81 6 -34 24 -48 24 -19 0 57 -70 135 -120
135 -16 0 -42 -12 -61 -27z m21 -298 c0 -8 -6 -15 -14 -15 -17 0 -28 14 -19
24 12 12 33 6 33 -9z"/>
<path d="M186 324 c-19 -18 -19 -20 -6 -45 13 -23 37 -25 61 -3 14 12 24 13
56 5 118 -32 191 -154 128 -216 -26 -27 -82 -33 -129 -15 -14 5 -28 5 -31 1
-7 -12 50 -31 92 -31 102 0 143 95 81 186 -27 39 -89 81 -143 95 -22 6 -48 17
-59 25 -26 18 -31 18 -50 -2z m42 -27 c2 -10 -3 -17 -12 -17 -18 0 -29 16 -21
31 9 14 29 6 33 -14z"/>
<path d="M60 228 c-89 -92 -51 -208 69 -208 48 0 134 43 166 83 14 18 34 42
46 53 28 29 23 69 -10 69 -32 0 -50 -29 -34 -55 11 -17 9 -24 -19 -56 -94
-107 -260 -95 -245 17 3 22 17 56 32 75 31 41 28 56 -5 22z m278 -35 c-4 -22
-22 -20 -26 1 -2 10 3 16 13 16 10 0 15 -7 13 -17z"/>
<path d="M164 210 c1 -18 7 -25 21 -25 14 0 20 7 21 25 1 22 0 22 -3 3 -2 -13
-10 -23 -18 -23 -8 0 -16 10 -18 23 -3 19 -4 19 -3 -3z"/>
<path d="M220 210 c0 -16 4 -30 8 -30 5 0 7 14 4 30 -2 17 -6 30 -8 30 -2 0
-4 -13 -4 -30z"/>
<path d="M272 210 c0 -19 2 -27 5 -17 2 9 2 25 0 35 -3 9 -5 1 -5 -18z"/>
<path d="M251 204 c0 -11 3 -14 6 -6 3 7 2 16 -1 19 -3 4 -6 -2 -5 -13z"/>
</g>
</svg>
